HIERARCHY
ROOT hip
{
  OFFSET 0 0 0
  CHANNELS 6 Xposition Yposition Zposition Zrotation Yrotation Xrotation
  JOINT abdomen
  {
    OFFSET 0 20.6881 -0.73152
    CHANNELS 3 Zrotation Xrotation Yrotation
    JOINT chest
    {
      OFFSET 0 11.7043 -0.48768
      CHANNELS 3 Zrotation Xrotation Yrotation
      JOINT neck
      {
        OFFSET 0 22.1894 -2.19456
        CHANNELS 3 Zrotation Xrotation Yrotation
        JOINT head
        {
          OFFSET -0.24384 7.07133 1.2192
          CHANNELS 3 Zrotation Xrotation Yrotation
          JOINT leftEye
          {
            OFFSET 4.14528 8.04674 8.04672
            CHANNELS 3 Zrotation Xrotation Yrotation
            End Site
            {
              OFFSET 1 0 0
            }
          }
          JOINT rightEye
          {
            OFFSET -3.6576 8.04674 8.04672
            CHANNELS 3 Zrotation Xrotation Yrotation
            End Site
            {
              OFFSET 1 0 0
            }
          }
        }
      }
      JOINT rCollar
      {
        OFFSET -2.68224 19.2634 -4.8768
        CHANNELS 3 Zrotation Xrotation Yrotation
        JOINT rShldr
        {
          OFFSET -8.77824 -1.95073 1.46304
          CHANNELS 3 Zrotation Xrotation Yrotation
          JOINT rForeArm
          {
            OFFSET -28.1742 -1.7115 0.48768
            CHANNELS 3 Zrotation Xrotation Yrotation
            JOINT rHand
            {
              OFFSET -22.5879 0.773209 7.07136
              CHANNELS 3 Zrotation Xrotation Yrotation
              JOINT rThumb1
              {
                OFFSET -1.2192 -0.487915 3.41376
                CHANNELS 3 Zrotation Xrotation Yrotation
                JOINT rThumb2
                {
                  OFFSET -3.37035 -0.52449 3.41376
                  CHANNELS 3 Zrotation Xrotation Yrotation
                  End Site
                  {
                    OFFSET -1.78271 -1.18214 1.43049
                  }
                }
              }
              JOINT rIndex1
              {
                OFFSET -7.75947 0.938293 5.60832
                CHANNELS 3 Zrotation Xrotation Yrotation
                JOINT rIndex2
                {
                  OFFSET -2.54057 -0.884171 1.56538
                  CHANNELS 3 Zrotation Xrotation Yrotation
                  End Site
                  {
                    OFFSET -1.62519 -0.234802 1.16502
                  }
                }
              }
              JOINT rMid1
              {
                OFFSET -8.24714 1.18213 3.41376
                CHANNELS 3 Zrotation Xrotation Yrotation
                JOINT rMid2
                {
                  OFFSET -3.10165 -0.590103 1.0647
                  CHANNELS 3 Zrotation Xrotation Yrotation
                  End Site
                  {
                    OFFSET -2.48547 -0.328903 0.83742
                  }
                }
              }
              JOINT rRing1
              {
                OFFSET -8.82822 0.546677 1.51678
                CHANNELS 3 Zrotation Xrotation Yrotation
                JOINT rRing2
                {
                  OFFSET -2.60934 -0.819778 -0.0198488
                  CHANNELS 3 Zrotation Xrotation Yrotation
                  End Site
                  {
                    OFFSET -2.33842 -0.294052 0.168128
                  }
                }
              }
              JOINT rPinky1
              {
                OFFSET -8.27202 -0.0477905 -0.4584
                CHANNELS 3 Zrotation Xrotation Yrotation
                JOINT rPinky2
                {
                  OFFSET -1.82734 -0.647385 -0.700984
                  CHANNELS 3 Zrotation Xrotation Yrotation
                  End Site
                  {
                    OFFSET -1.69225 -0.51767 -0.607171
                  }
                }
              }
            }
          }
        }
      }
      JOINT lCollar
      {
        OFFSET 2.68224 19.2634 -4.8768
        CHANNELS 3 Zrotation Xrotation Yrotation
        JOINT lShldr
        {
          OFFSET 8.77824 -1.95073 1.46304
          CHANNELS 3 Zrotation Xrotation Yrotation
          JOINT lForeArm
          {
            OFFSET 28.1742 -1.7115 0.48768
            CHANNELS 3 Zrotation Xrotation Yrotation
            JOINT lHand
            {
              OFFSET 22.5879 0.773209 7.07136
              CHANNELS 3 Zrotation Xrotation Yrotation
              JOINT lThumb1
              {
                OFFSET 1.2192 -0.487915 3.41376
                CHANNELS 3 Zrotation Xrotation Yrotation
                JOINT lThumb2
                {
                  OFFSET 3.37035 -0.52449 3.41376
                  CHANNELS 3 Zrotation Xrotation Yrotation
                  End Site
                  {
                    OFFSET 1.78271 -1.18214 1.43049
                  }
                }
              }
              JOINT lIndex1
              {
                OFFSET 7.75947 0.938293 5.60832
                CHANNELS 3 Zrotation Xrotation Yrotation
                JOINT lIndex2
                {
                  OFFSET 2.54057 -0.884171 1.56538
                  CHANNELS 3 Zrotation Xrotation Yrotation
                  End Site
                  {
                    OFFSET 1.62519 -0.234802 1.16502
                  }
                }
              }
              JOINT lMid1
              {
                OFFSET 8.24714 1.18213 3.41376
                CHANNELS 3 Zrotation Xrotation Yrotation
                JOINT lMid2
                {
                  OFFSET 3.10165 -0.590103 1.0647
                  CHANNELS 3 Zrotation Xrotation Yrotation
                  End Site
                  {
                    OFFSET 2.48547 -0.328903 0.83742
                  }
                }
              }
              JOINT lRing1
              {
                OFFSET 8.82822 0.546677 1.51678
                CHANNELS 3 Zrotation Xrotation Yrotation
                JOINT lRing2
                {
                  OFFSET 2.60934 -0.819778 -0.0198488
                  CHANNELS 3 Zrotation Xrotation Yrotation
                  End Site
                  {
                    OFFSET 2.33842 -0.294052 0.168128
                  }
                }
              }
              JOINT lPinky1
              {
                OFFSET 8.27202 -0.0477905 -0.4584
                CHANNELS 3 Zrotation Xrotation Yrotation
                JOINT lPinky2
                {
                  OFFSET 1.82734 -0.647385 -0.700984
                  CHANNELS 3 Zrotation Xrotation Yrotation
                  End Site
                  {
                    OFFSET 1.69225 -0.51767 -0.607171
                  }
                }
              }
            }
          }
        }
      }
    }
  }
  JOINT rButtock
  {
    OFFSET -8.77824 4.35084 1.2192
    CHANNELS 3 Zrotation Xrotation Yrotation
    JOINT rThigh
    {
      OFFSET 0 -1.70687 -2.19456
      CHANNELS 3 Zrotation Xrotation Yrotation
      JOINT rShin
      {
        OFFSET 0 -36.8199 0.73152
        CHANNELS 3 Zrotation Xrotation Yrotation
        JOINT rFoot
        {
          OFFSET 0.73152 -45.1104 -5.12064
          CHANNELS 3 Zrotation Xrotation Yrotation
          End Site
          {
            OFFSET -1.1221 -3.69964 12.103
          }
        }
      }
    }
  }
  JOINT lButtock
  {
    OFFSET 8.77824 4.35084 1.2192
    CHANNELS 3 Zrotation Xrotation Yrotation
    JOINT lThigh
    {
      OFFSET 0 -1.70687 -2.19456
      CHANNELS 3 Zrotation Xrotation Yrotation
      JOINT lShin
      {
        OFFSET 0 -36.8199 0.73152
        CHANNELS 3 Zrotation Xrotation Yrotation
        JOINT lFoot
        {
          OFFSET -0.73152 -45.1104 -5.12064
          CHANNELS 3 Zrotation Xrotation Yrotation
          End Site
          {
            OFFSET 1.1221 -3.69964 12.103
          }
        }
      }
    }
  }
}
MOTION
Frames:	4
Frame Time:	0.03333
-9.943914087489247 71.43040895462036 10.611122474074364 0.39134928584098816 -20.52310562133789 4.622036457061768 -2.5258984565734863 11.400128364562988 -3.306623935699463 4.690174579620361 -7.155807971954346 -1.1117972135543823 -0.9328075051307678 14.620881080627441 5.6153178215026855 2.785578966140747 -30.021709442138672 10.923053741455078 -0.05740462988615036 -0.1830929070711136 0.5538104176521301 0.6447385549545288 -0.4196956753730774 -0.2876661419868469 -0.02670944482088089 -0.6540077328681946 -0.038455065339803696 64.3106918334961 32.049842834472656 -9.01900863647461 -24.9979248046875 -21.75387191772461 54.796295166015625 -0.7892566919326782 -27.87342071533203 -4.17383337020874 0.04694455862045288 -0.1387738734483719 0.340371698141098 0.14713585376739502 -0.3686182200908661 -0.08121190965175629 0.024652980268001556 0.4374421238899231 -0.714560329914093 7.6435651779174805 5.270801544189453 0.6315916776657104 0.4838167428970337 -0.035952042788267136 -0.0219385027885437 3.156097650527954 0.8990128040313721 0.17440171539783478 -0.546750545501709 0.0346178337931633 0.2168104499578476 10.19456672668457 1.5406399965286255 0.3090122938156128 -0.14185111224651337 0.1350475698709488 0.08539677411317825 2.183739185333252 -0.49544310569763184 -0.1998235285282135 -0.05261598527431488 -0.007386688143014908 -0.5880425572395325 14.413166999816895 26.569169998168945 -98.75016021728516 26.400503158569336 -22.78227996826172 -55.35477828979492 0.49616289138793945 -4.536475658416748 0.5910720825195312 0.3966597318649292 0.13788579404354095 0.22285096347332 -0.40230000019073486 0.011208576150238514 0.46171852946281433 -0.13241642713546753 -0.4355904161930084 0.6554075479507446 -7.748302936553955 5.7430572509765625 0.33535295724868774 0.4973050355911255 -0.18422231078147888 0.03768021613359451 -2.1387851238250732 0.5659229755401611 -0.1597948670387268 0.22436900436878204 -0.3532562255859375 0.45536842942237854 -10.326627731323242 1.0914946794509888 0.21403995156288147 0.446932315826416 -0.12951788306236267 -0.19944697618484497 -2.1612300872802734 -0.8441967368125916 0.613680362701416 -0.2239382565021515 -0.7773398756980896 0.20423491299152374 -11.219453811645508 -40.302791595458984 -9.738167762756348 -0.6852470636367798 60.5921630859375 1.7138075828552246 -8.943986892700195 -15.41816234588623 -22.01974868774414 -0.3838242292404175 0.030659053474664688 0.7073901891708374 10.494060516357422 -29.520366668701172 4.75176477432251 1.3217854499816895 61.12797546386719 -2.1017796993255615 10.062158584594727 -22.353687286376953 23.183517456054688
-10.279639018699527 71.33398056030273 10.820150934159756 0.0575854629278183 -20.646108627319336 4.723660469055176 -2.4527902603149414 11.07686996459961 -2.8838326930999756 4.580039024353027 -7.257682800292969 -0.9499903917312622 -0.6802315711975098 14.632346153259277 5.9904398918151855 2.4669950008392334 -30.493576049804688 11.74373722076416 -0.050428494811058044 -0.24104811251163483 0.5878549218177795 0.6005361080169678 -0.3704349994659424 -0.35128888487815857 -0.1057637482881546 -0.7174136638641357 -0.09958525002002716 61.26923751831055 29.7912654876709 -3.955491304397583 -24.235469818115234 -20.202486038208008 52.48927688598633 -0.47948160767555237 -24.26939582824707 -3.621133804321289 0.07894185185432434 -0.13377979397773743 0.302287220954895 0.04895072802901268 -0.4338465631008148 -0.12131085991859436 0.02093307487666607 0.4019983410835266 -0.7792723178863525 7.70100212097168 5.314608097076416 0.6449317336082458 0.5372486114501953 -0.009909954853355885 -0.005950880702584982 3.1349737644195557 0.9050939083099365 0.2673134505748749 -0.5439321398735046 0.06943628937005997 0.289999783039093 10.19003963470459 1.518244981765747 0.3661370575428009 -0.17710085213184357 0.07074429094791412 0.17312584817409515 2.1529057025909424 -0.5636505484580994 -0.2943422496318817 0.006296113133430481 -0.00010978545469697565 -0.5655642747879028 14.557494163513184 25.527313232421875 -100.34622192382812 27.003541946411133 -23.842199325561523 -56.80924987792969 0.5884788632392883 -8.407730102539062 1.1909960508346558 0.3854925334453583 0.16776861250400543 0.26875972747802734 -0.4347943067550659 0.061087027192115784 0.4597032964229584 -0.035112131386995316 -0.4678996801376343 0.639695405960083 -7.864209175109863 5.768028736114502 0.2704410254955292 0.55804443359375 -0.1465751975774765 0.10795889794826508 -2.1603102684020996 0.5006991624832153 -0.1139722689986229 0.10532064735889435 -0.31936153769493103 0.4438369870185852 -10.370338439941406 1.1323747634887695 0.20309796929359436 0.37132027745246887 -0.10561224818229675 -0.2240394502878189 -2.1848204135894775 -0.8653268218040466 0.7296381592750549 -0.15706947445869446 -0.8548047542572021 0.24380075931549072 -12.036717414855957 -40.10417556762695 -10.3674955368042 -0.8534460663795471 60.523162841796875 1.922520399093628 -9.285438537597656 -15.075543403625488 -23.231616973876953 -0.36573344469070435 -0.04339803010225296 0.7014887928962708 10.172725677490234 -29.3435115814209 4.41032600402832 1.312742829322815 61.311805725097656 -2.085759162902832 10.166913986206055 -21.864458084106445 23.853696823120117
-10.55782618932426 71.1676836013794 11.025351285934448 -0.43734970688819885 -20.081457138061523 4.752355098724365 -2.4645578861236572 10.711936950683594 -2.7328994274139404 4.633754253387451 -7.4235758781433105 -0.8732783198356628 -0.6525372266769409 14.737740516662598 5.869751453399658 2.458197593688965 -30.96890640258789 11.675150871276855 -0.05424024909734726 -0.2913590371608734 0.5925039649009705 0.49883222579956055 -0.2881183326244354 -0.3982919752597809 -0.14570598304271698 -0.7494498491287231 -0.189838245511055 58.12021255493164 27.37325096130371 1.800546646118164 -23.321983337402344 -18.51544952392578 49.94622802734375 -0.19488266110420227 -20.35835838317871 -3.040408134460449 0.1290052980184555 -0.13164269924163818 0.2349730283021927 -0.10091572254896164 -0.5034961104393005 -0.14870770275592804 0.018088193610310555 0.3718392252922058 -0.8463543057441711 7.767463207244873 5.362996578216553 0.6326528787612915 0.5609300136566162 0.035518012940883636 0.00452713156118989 3.10244083404541 0.9348618388175964 0.36498507857322693 -0.4857218265533447 0.09989598393440247 0.35488227009773254 10.187005996704102 1.4550633430480957 0.4241403043270111 -0.1855716109275818 -0.005379399750381708 0.2573944926261902 2.1209628582000732 -0.6303015351295471 -0.3841465413570404 0.06545986235141754 0.03869982436299324 -0.48777008056640625 14.955934524536133 24.4359130859375 -102.74064636230469 27.50238037109375 -24.87621307373047 -58.26612091064453 0.6835775375366211 -11.514165878295898 1.667669415473938 0.3962574899196625 0.16861119866371155 0.2753465473651886 -0.46410658955574036 0.11971893906593323 0.41307532787323 0.05738946795463562 -0.48764628171920776 0.5573348999023438 -7.9693074226379395 5.7851386070251465 0.1763133853673935 0.6516600251197815 -0.12147769331932068 0.19027046859264374 -2.198270320892334 0.47131574153900146 -0.056607943028211594 0.01573505625128746 -0.2969035506248474 0.4289665222167969 -10.441520690917969 1.1528468132019043 0.1680128127336502 0.2907320261001587 -0.05883786827325821 -0.24788831174373627 -2.1879518032073975 -0.8818026781082153 0.83029705286026 -0.10599996149539948 -0.9007187485694885 0.26280760765075684 -13.240851402282715 -40.339561462402344 -11.533697128295898 -1.1433411836624146 60.88689041137695 2.2577741146087646 -9.360784530639648 -14.393195152282715 -23.92283058166504 -0.3567330241203308 -0.14804664254188538 0.6748074293136597 9.483345031738281 -28.787153244018555 4.198148250579834 1.2739521265029907 61.49774169921875 -2.0547449588775635 10.456512451171875 -21.460927963256836 24.87586784362793
-10.762988263741136 71.01231217384338 11.253292113542557 -0.9470386505126953 -19.923847198486328 4.506717681884766 -2.5627713203430176 10.437521934509277 -2.617361545562744 4.708472728729248 -7.672835350036621 -0.8201993107795715 -0.7499855160713196 14.838664054870605 5.523377895355225 2.6073200702667236 -31.337238311767578 11.082301139831543 -0.05650981888175011 -0.380108505487442 0.5601196885108948 0.35844218730926514 -0.19161850214004517 -0.432876855134964 -0.13534319400787354 -0.7285659909248352 -0.27488842606544495 54.96614074707031 25.355133056640625 7.871160984039307 -22.500503540039062 -17.15493392944336 47.897911071777344 0.024045271798968315 -16.316587448120117 -2.4360721111297607 0.1886787712574005 -0.1329519897699356 0.12434018403291702 -0.27563023567199707 -0.5708191990852356 -0.17981286346912384 0.014703880995512009 0.3492385745048523 -0.9321966767311096 7.870090007781982 5.451310634613037 0.5701524019241333 0.5506508350372314 0.08740673959255219 0.0199957937002182 3.047851085662842 0.9760148525238037 0.45340287685394287 -0.38325533270835876 0.09154298901557922 0.39165037870407104 10.196200370788574 1.3607243299484253 0.47165074944496155 -0.1707296073436737 -0.06415805220603943 0.3144923150539398 2.1137166023254395 -0.7175876498222351 -0.46466538310050964 0.13682927191257477 0.08725499361753464 -0.3947836756706238 15.03422737121582 23.385543823242188 -105.22627258300781 28.00491714477539 -26.308435440063477 -60.35360336303711 0.7844076752662659 -14.940476417541504 2.2210352420806885 0.43172430992126465 0.12655363976955414 0.27736058831214905 -0.4820016324520111 0.20662328600883484 0.3466204106807709 0.11454465240240097 -0.5069027543067932 0.3951603174209595 -8.070342063903809 5.762701511383057 0.03418414294719696 0.7376171350479126 -0.11945274472236633 0.26608970761299133 -2.2726993560791016 0.4629727005958557 0.018054582178592682 -0.047205112874507904 -0.26840537786483765 0.4161188006401062 -10.515047073364258 1.1385611295700073 0.11285340785980225 0.24643932282924652 -0.0317472368478775 -0.2760131061077118 -2.1559536457061768 -0.889141321182251 0.9002671241760254 -0.08814463019371033 -0.8991920948028564 0.31132471561431885 -14.887664794921875 -40.64570999145508 -13.279729843139648 -1.5547890663146973 61.79829025268555 2.6822593212127686 -9.290484428405762 -13.724522590637207 -24.205638885498047 -0.3414575755596161 -0.3025340735912323 0.6115698218345642 9.04847240447998 -28.456087112426758 4.4816412925720215 1.1345014572143555 61.97733688354492 -1.9590554237365723 10.607973098754883 -20.8731632232666 25.727819442749023
